<svg version="1.2" xmlns="http://www.w3.org/2000/svg" viewBox="0 0 234 233" width="234" height="233">
	<style>
		tspan { white-space:pre } 
		.s0 { fill: #ffffff } 
		.s1 { fill: #0048cc } 
		.s2 { fill: #656565 } 
		.s3 { fill: #319900 } 
	</style>
	<g id="Group 1">
		<g id="Group 2">
			<path id="Object 3" class="s0" d="m117 232.2c-64.2 0-116.1-51.9-116.1-116.1 0-64.2 51.9-116.1 116.1-116.1 64.21 0 116.1 51.9 116.1 116.1 0 64.2-51.89 116.1-116.1 116.1z"/>
			<path id="Object 4" class="s1" d="m9.11 73.15q2.34-5.87 5.29-11.42h42.01c-2.76 3.88-5.17 7.9-7.05 12.13h-2.92c-11.62-8.77-25.1-6.74-37.33-0.71z"/>
			<path id="Object 5" class="s1" d="m117 0c23.02 0 44.48 6.7 62.53 18.26l-125.15 0.06c18.07-11.6 39.56-18.32 62.62-18.32z"/>
			<path id="Object 6" class="s1" d="m199.19 34.1c4.89 4.9 9.33 10.24 13.29 15.94h-97.02c-14.94-6.8-30.15-6.6-44.43 0l-49.46-0.07c4-5.76 8.51-11.15 13.47-16.09z"/>
			<path id="Object 7" class="s1" d="m219.61 61.75q3.04 5.7 5.43 11.76l-53.5 0.18c-10.7-7.29-22.42-7.03-32.37-0.01h-1.92c-1.91-4.12-4.2-8.14-7.08-11.9z"/>
			<path id="Object 8" class="s1" d="m227.78 81.26q1.35 4.29 2.37 8.72l-21.45 0.09c-8.79-5.32-17.71-6.38-25.89-0.66h-0.43c-0.58-2.92-1.72-5.71-3.71-8.28z"/>
			<path id="Object 9" class="s1" d="m230.91 93.55q0.48 2.44 0.86 4.91l-17.71 0.08c-0.28-1.89-1.04-3.58-2.38-5.02z"/>
			<path id="Object 10" class="s2" d="m233.08 114.59q0.02 0.75 0.02 1.51 0 1.23-0.03 2.46l-232.14 0.02q-0.02-1.24-0.03-2.48 0.01-0.74 0.02-1.48z"/>
			<g id="Group 11">
				<path id="Object 12" class="s3" d="m3.2 139.15q-0.52-2.53-0.91-5.1l55.84-0.08c2 1.48 3.54 2.96 4.64 5.18z"/>
				<path id="Object 13" class="s3" d="m228.02 150.17q-0.72 2.34-1.54 4.64l-148.15 0.06q-1.53-1.7-2.92-3.54l-69.06-0.02q-1.42-4.44-2.48-9.03h62.97l7.35 7.82z"/>
				<path id="Object 14" class="s3" d="m224.93 158.95q-1.68 4.22-3.67 8.28l-129.44-0.07 3.04 3.65-80.31-0.07q-3.07-5.73-5.49-11.83z"/>
				<path id="Object 15" class="s3" d="m217.15 174.85q-3.63 6.16-7.96 11.81l-98.06 0.41 12.04 11.88 75.1 0.05c-6.15 6.04-12.98 11.39-20.36 15.95l-38.83-0.05 12.27 12.13c-10.85 3.36-22.39 5.17-34.35 5.17-22.82 0-44.1-6.59-62.04-17.96l82.92 0.1-14.71-15.39-87.97-0.47c-4.95-4.92-9.45-10.28-13.46-16.01l84.36 0.03-7.71-7.72z"/>
			</g>
		</g>
	</g>
</svg>